<svg width="264" height="593" viewBox="0 0 264 593" fill="none" xmlns="http://www.w3.org/2000/svg">
<path d="M-166.953 83.9508C-166.953 130.457 -148.968 208.876 -216.883 293.648C-283.219 376.45 -191.959 114.254 -100.305 98.0256C6.83274 79.0554 -177.807 518.301 -187.328 428.909C-192.654 378.898 -37.6819 116.399 5.90964 159.991C61.3635 215.445 -84.0467 532.191 -118 526.981C-177.9 517.791 36.3315 153.446 97.1184 184.826C169.603 222.244 50.1284 471.949 -5.31016 485.343C-49.661 496.057 115.755 254.065 226.446 309.449" stroke="black" stroke-width="8" stroke-linecap="round"/>
<path d="M233.941 289.989C235.022 288.054 237.98 289.052 237.667 291.246L237.091 295.288C236.904 296.605 238.029 297.734 239.346 297.552L255.061 295.372C257.181 295.078 258.219 297.871 256.421 299.033L244.744 306.583C243.389 307.459 243.576 309.496 245.067 310.111L253.016 313.393C254.844 314.148 254.585 316.813 252.647 317.203L247.444 318.248C246.269 318.484 245.564 319.694 245.938 320.833L247.414 325.327C247.978 327.044 246.156 328.569 244.565 327.711L238.221 324.291C236.593 323.413 234.749 325.026 235.4 326.756L238.89 336.022C239.647 338.032 237.135 339.66 235.61 338.147L225.746 328.364C225.11 327.733 224.132 327.602 223.353 328.043L212.234 334.334C210.381 335.382 208.391 333.195 209.609 331.449L216.157 322.062C216.756 321.204 216.592 320.028 215.78 319.367L204.362 310.073C202.903 308.885 203.743 306.522 205.625 306.522H214.421C215.415 306.522 216.258 305.791 216.4 304.807L217.779 295.245C218.078 293.176 220.949 292.894 221.645 294.864L223.879 301.188C224.452 302.811 226.671 303 227.511 301.497L233.941 289.989Z" fill="#CD4631"/>
</svg>
